:SAMPLES-PER-SECOND 30
:FULLY-SPECIFIED
:DEGREES
343
root  -65.9851 33.4052 30.5782 -166.116 61.6085 -166.378
RightUpLeg  -6.57814 -19.4226 -1.62913
RightLeg  25.895 -2.07053 -0.8511
RightFoot  -4.9835 -0.00735764 0.39458
RightToes  -39.495 -0.209289 -0.308594
Spine  1.35319 0.506967 -0.999722
Spine1  2.65039 1.16873 -1.3803
HEad  -63.8506 -10.736 -0.395992
LeftShoulder1  -1.94126e-019 -3.10601e-018 -2.51263e-017
LeftArm  6.85166 11.2054 -81.9821
LeftForeArm  42.0729 -62.7004 -17.7917
LeftHand  0.011228 -7.93297 0.276688
RightShoulder  -4.96962e-017 0 -2.36833e-017
RightArm  -14.6795 -13.2491 73.1531
RightForeArm  49.7624 28.3664 3.47993
RightHand  -0.254779 2.99478 -3.75509
LeftUpLeg  -30.2797 16.2605 10.7995
LeftLeg  46.4656 -1.50834 -1.40364
LeftFoot  -2.97243 0.00285951 0.271703
LeftToes  -50.4226 2.32378e-006 -5.43956e-008
344
root  -66.1665 33.5329 30.5155 -161.058 66.769 -162.578
RightUpLeg  -8.31307 -11.873 -0.240519
RightLeg  23.8838 -4.16147 -1.53337
RightFoot  -3.47411 -0.0032594 0.474508
RightToes  -38.7794 -0.208806 -0.308124
Spine  0.804425 1.89433 -1.00316
Spine1  1.58407 3.93179 -1.34429
HEad  -67.169 -10.0862 -0.111569
LeftShoulder1  -1.94126e-019 -3.10601e-018 -2.51263e-017
LeftArm  6.69014 12.8024 -80.503
LeftForeArm  43.8728 -66.6511 -21.7768
LeftHand  -0.0749855 -7.54362 1.03874
RightShoulder  -4.96962e-017 0 -2.36833e-017
RightArm  -13.6065 -14.8942 73.628
RightForeArm  50.9526 31.8287 4.19062
RightHand  -0.230035 2.48305 -3.59547
LeftUpLeg  -27.0876 19.3685 14.6864
LeftLeg  46.8159 4.41697 4.11884
LeftFoot  -4.01541 -0.0144686 -0.251217
LeftToes  -39.0888 2.32378e-006 -5.43956e-008
345
root  -66.5031 33.4128 30.4077 -150.838 70.1647 -154.07
RightUpLeg  -11.4446 -6.53539 1.76878
RightLeg  23.68 -5.18511 -1.88712
RightFoot  -2.63382 -0.00299819 0.464223
RightToes  -39.0136 -0.210652 -0.309483
Spine  0.103396 2.80982 -0.581953
Spine1  0.265626 5.7831 -0.518884
HEad  -70.2798 -8.66589 0.674573
LeftShoulder1  -1.94126e-019 -3.10601e-018 -2.51263e-017
LeftArm  6.21503 13.6574 -78.8361
LeftForeArm  46.078 -69.4144 -25.5393
LeftHand  -0.271636 -6.68842 2.95608
RightShoulder  -4.96962e-017 0 -2.36833e-017
RightArm  -13.8833 -16.1918 73.7775
RightForeArm  50.061 34.8416 4.94607
RightHand  -0.29835 1.31584 -5.3038
LeftUpLeg  -24.9801 22.0862 19.0349
LeftLeg  47.5882 8.20467 7.8131
LeftFoot  -2.29353 -0.00848411 -0.262306
LeftToes  -28.5797 2.32378e-006 -5.43956e-008
346
root  -67.2322 33.1152 29.9105 -148.341 68.7327 -152.531
RightUpLeg  -14.678 -9.6796 1.80872
RightLeg  26.2652 -3.09518 -1.29241
RightFoot  -2.45288 -0.00509845 0.345156
RightToes  -40.8286 -0.225136 -0.319755
Spine  -0.177104 1.81874 0.126783
Spine1  -0.239887 3.83182 0.871688
HEad  -72.0613 -6.74662 0.678889
LeftShoulder1  -1.94126e-019 -3.10601e-018 -2.51263e-017
LeftArm  4.9302 12.9623 -78.2189
LeftForeArm  43.8859 -68.8402 -24.964
LeftHand  -0.450966 -5.59073 5.08467
RightShoulder  -4.96962e-017 0 -2.36833e-017
RightArm  -14.4232 -16.1059 72.8799
RightForeArm  46.9746 36.846 5.60199
RightHand  -0.308264 -0.0729868 -6.76242
LeftUpLeg  -24.2955 18.2111 20.5305
LeftLeg  46.3451 9.98848 9.07401
LeftFoot  1.91008 -0.00840984 0.666055
LeftToes  -50.906 2.32378e-006 -5.43956e-008
347
root  -67.905 32.8375 29.4254 -151.308 68.1403 -155.111
RightUpLeg  -16.4979 -11.5259 -0.00317462
RightLeg  29.6038 -2.10884 -1.03392
RightFoot  -2.73938 -0.0063021 0.311061
RightToes  -42.0124 -0.234756 -0.326206
Spine  0.0901063 1.16614 0.273794
Spine1  0.268147 2.52024 1.15391
HEad  -72.8584 -6.02672 1.21085
LeftShoulder1  -1.94126e-019 -3.10601e-018 -2.51263e-017
LeftArm  3.84672 10.5695 -77.1837
LeftForeArm  38.3834 -64.7082 -20.2757
LeftHand  -0.547529 -4.71961 6.57901
RightShoulder  -4.96962e-017 0 -2.36833e-017
RightArm  -16.2043 -15.8051 72.9367
RightForeArm  43.4329 38.4903 6.22449
RightHand  -0.264924 -1.41383 -7.60068
LeftUpLeg  -22.8919 16.5971 19.4282
LeftLeg  43.61 7.2222 5.99935
LeftFoot  -4.20488 -0.0244875 -0.505497
LeftToes  -47.179 2.32378e-006 -5.43956e-008
348
root  -68.3054 32.6942 28.6206 -159.39 67.6908 -161.576
RightUpLeg  -15.1453 -13.7216 -4.15181
RightLeg  31.1915 -1.09605 -0.581929
RightFoot  -2.75501 -0.0047736 0.257
RightToes  -42.9819 -0.242732 -0.33134
Spine  0.920372 0.795443 -0.299772
Spine1  1.85022 1.7788 -0.0290693
HEad  -72.5852 -6.8836 2.74599
LeftShoulder1  -1.94126e-019 -3.10601e-018 -2.51263e-017
LeftArm  3.21324 7.09194 -76.076
LeftForeArm  34.2749 -57.8958 -14.9616
LeftHand  -0.54314 -4.30337 6.78425
RightShoulder  -4.96962e-017 0 -2.36833e-017
RightArm  -18.1068 -15.8328 73.9408
RightForeArm  40.4202 38.9524 6.51076
RightHand  -0.209899 -2.68573 -8.58637
LeftUpLeg  -22.3414 14.6565 15.9203
LeftLeg  44.9584 7.81365 6.79778
LeftFoot  -5.24553 -0.0432577 -0.782773
LeftToes  -44.6785 2.32378e-006 -5.43956e-008
349
root  -68.6462 32.7693 27.9065 -166.27 67.0678 -167.128
RightUpLeg  -12.7762 -13.1335 -7.65659
RightLeg  30.2824 -2.20881 -1.11566
RightFoot  -1.79759 -0.00820458 0.278901
RightToes  -42.7164 -0.240539 -0.329947
Spine  1.52579 0.974255 -0.85458
Spine1  3.00604 2.11317 -1.10615
HEad  -70.6892 -9.52319 3.00156
LeftShoulder1  -1.94126e-019 -3.10601e-018 -2.51263e-017
LeftArm  3.94038 4.07386 -75.1855
LeftForeArm  34.8554 -50.5503 -10.9424
LeftHand  -0.542876 -4.09559 6.91703
RightShoulder  -4.96962e-017 0 -2.36833e-017
RightArm  -20.7758 -16.8476 75.4225
RightForeArm  39.4434 38.5678 6.45634
RightHand  -0.196412 -3.07893 -9.30361
LeftUpLeg  -21.6972 14.1202 12.7102
LeftLeg  45.718 7.85529 7.01656
LeftFoot  -5.0349 -0.0410248 -0.771544
LeftToes  -40.5796 2.32378e-006 -5.43956e-008
350
root  -69.1673 32.8605 27.3263 -169.335 65.429 -169.46
RightUpLeg  -11.0035 -12.0771 -9.39404
RightLeg  28.5518 -4.20598 -1.95482
RightFoot  -0.283903 -0.00632021 0.232783
RightToes  -41.5688 -0.231135 -0.323812
Spine  1.7617 0.867703 -0.987036
Spine1  3.45648 1.88696 -1.35357
HEad  -68.1863 -12.1508 1.95948
LeftShoulder1  -1.94126e-019 -3.10601e-018 -2.51263e-017
LeftArm  4.56157 3.09689 -74.0695
LeftForeArm  36.0586 -46.1388 -9.08413
LeftHand  -0.615187 -3.91418 7.94086
RightShoulder  -4.96962e-017 0 -2.36833e-017
RightArm  -20.466 -17.1686 76.0043
RightForeArm  39.2035 36.9843 6.0392
RightHand  -0.186338 -3.1102 -8.90065
LeftUpLeg  -20.8263 12.7983 10.7772
LeftLeg  44.0059 7.64944 6.43876
LeftFoot  -5.65704 -0.0494903 -0.840122
LeftToes  -40.1931 2.32378e-006 -5.43956e-008
351
root  -69.6082 33.097 26.8786 -170.688 65.4271 -170.792
RightUpLeg  -9.89311 -9.49331 -10.2839
RightLeg  25.8662 -6.59218 -2.68463
RightFoot  0.805615 0.00110292 0.11827
RightToes  -37.3069 -0.197335 -0.299409
Spine  1.64771 1.47547 -1.31754
Spine1  3.21097 3.09534 -1.97485
HEad  -65.1755 -15.1705 0.69162
LeftShoulder1  -1.94126e-019 -3.10601e-018 -2.51263e-017
LeftArm  4.76188 3.90036 -71.988
LeftForeArm  33.4189 -44.5984 -8.71675
LeftHand  -0.61933 -3.82441 8.06474
RightShoulder  -4.96962e-017 0 -2.36833e-017
RightArm  -19.3278 -17.2614 76.9793
RightForeArm  40.5651 34.3167 5.28481
RightHand  -0.187717 -2.06029 -6.26158
LeftUpLeg  -20.0127 11.7859 9.04389
LeftLeg  41.9467 8.6908 6.78976
LeftFoot  -4.98821 -0.042593 -0.816287
LeftToes  -39.6798 2.32378e-006 -5.43956e-008
352
root  -69.9594 33.4454 26.6015 -170.172 66.2583 -170.932
RightUpLeg  -9.11132 -6.4898 -10.2425
RightLeg  21.596 -7.17947 -2.3148
RightFoot  0.985395 0.00363807 0.0871635
RightToes  -31.4407 -0.153967 -0.261854
Spine  1.19106 1.94892 -1.36718
Spine1  2.29374 4.02679 -2.05034
HEad  -62.957 -16.2662 -1.30064
LeftShoulder1  -1.94126e-019 -3.10601e-018 -2.51263e-017
LeftArm  2.03358 7.57324 -69.8909
LeftForeArm  31.3199 -45.1489 -9.0527
LeftHand  -0.587844 -3.25788 8.13443
RightShoulder  -4.96962e-017 0 -2.36833e-017
RightArm  -15.5986 -17.5589 77.3366
RightForeArm  43.98 33.9541 5.0187
RightHand  -0.103243 -1.27162 -2.74811
LeftUpLeg  -19.356 11.8169 7.97837
LeftLeg  39.1535 9.72152 6.85466
LeftFoot  -3.86008 -0.0275569 -0.656202
LeftToes  -38.0393 2.32378e-006 -5.43956e-008
353
root  -70.2677 33.788 26.4486 -168.461 67.2133 -169.948
RightUpLeg  -8.70989 -5.14387 -9.62493
RightLeg  17.3459 -2.99399 -0.727958
RightFoot  0.383614 0.000757768 0.170381
RightToes  -27.7344 -0.128635 -0.235915
Spine  0.736232 2.50576 -1.40136
Spine1  1.37725 5.12678 -2.10667
HEad  -62.6522 -16.5581 -2.20143
LeftShoulder1  -1.94126e-019 -3.10601e-018 -2.51263e-017
LeftArm  -1.32248 12.0753 -67.6499
LeftForeArm  29.6624 -46.2781 -9.58041
LeftHand  -0.596515 -2.97512 8.51054
RightShoulder  -4.96962e-017 0 -2.36833e-017
RightArm  -12.1502 -18.0232 77.6845
RightForeArm  47.8473 34.6893 5.00094
RightHand  -0.0245216 0.812325 -0.544173
LeftUpLeg  -18.5705 12.362 7.56626
LeftLeg  35.8451 10.4042 6.47341
LeftFoot  -3.00935 -0.01729 -0.496681
LeftToes  -37.2815 2.32378e-006 -5.43956e-008
354
root  -70.5389 34.0105 26.3603 -166.963 68.0627 -169.268
RightUpLeg  -9.20316 -6.72954 -8.86044
RightLeg  15.2402 1.17791 0.240754
RightFoot  2.55194 0.00662148 0.214376
RightToes  -37.5175 -0.198962 -0.300673
Spine  0.308607 2.8497 -1.52385
Spine1  0.518226 5.78998 -2.33542
HEad  -63.8623 -16.1816 -1.91466
LeftShoulder1  -1.94126e-019 -3.10601e-018 -2.51263e-017
LeftArm  -5.40071 17.3518 -65.2985
LeftForeArm  27.6442 -47.5009 -10.1955
LeftHand  -0.585748 -2.49812 8.83358
RightShoulder  -4.96962e-017 0 -2.36833e-017
RightArm  -9.58511 -18.2353 78.0788
RightForeArm  49.6267 36.4816 5.36136
RightHand  -0.0114477 1.73816 -0.341445
LeftUpLeg  -18.3288 12.3537 7.13807
LeftLeg  33.5521 11.2978 6.4147
LeftFoot  -2.81394 -0.0160269 -0.490984
LeftToes  -37.3765 2.32378e-006 -5.43956e-008
